<svg width="680" height="496" viewBox="0 0 680 496" role="img" xmlns="http://www.w3.org/2000/svg"><title>Selene logo</title><desc>Pixel-art blue moon over edge-to-edge waves with pixel wordmark</desc>
<defs><linearGradient id="sky" x1="0" y1="0" x2="0" y2="1"><stop offset="0%" stop-color="#0A1E36"/><stop offset="58%" stop-color="#123A60"/><stop offset="100%" stop-color="#1E5188"/></linearGradient><clipPath id="ic"><rect x="150" y="6" width="380" height="388" rx="24"/></clipPath></defs>
<rect x="150" y="6" width="380" height="388" rx="24" fill="url(#sky)"/>
<rect x="215" y="49" width="8" height="8" fill="#7FA8CE"/><rect x="457" y="49" width="8" height="8" fill="#7FA8CE"/><rect x="193" y="115" width="8" height="8" fill="#7FA8CE"/><rect x="479" y="137" width="8" height="8" fill="#7FA8CE"/>
<rect x="274" y="64" width="22" height="22" fill="#CDEAF7"/><rect x="296" y="64" width="22" height="22" fill="#CDEAF7"/><rect x="318" y="64" width="22" height="22" fill="#CDEAF7"/><rect x="340" y="64" width="22" height="22" fill="#CDEAF7"/><rect x="362" y="64" width="22" height="22" fill="#CDEAF7"/><rect x="384" y="64" width="22" height="22" fill="#CDEAF7"/>
<rect x="252" y="86" width="22" height="22" fill="#CDEAF7"/><rect x="274" y="86" width="22" height="22" fill="#CDEAF7"/><rect x="296" y="86" width="22" height="22" fill="#CDEAF7"/><rect x="318" y="86" width="22" height="22" fill="#CDEAF7"/><rect x="340" y="86" width="22" height="22" fill="#CDEAF7"/><rect x="362" y="86" width="22" height="22" fill="#CDEAF7"/><rect x="384" y="86" width="22" height="22" fill="#CDEAF7"/><rect x="406" y="86" width="22" height="22" fill="#CDEAF7"/>
<rect x="230" y="108" width="22" height="22" fill="#CDEAF7"/><rect x="252" y="108" width="22" height="22" fill="#CDEAF7"/><rect x="274" y="108" width="22" height="22" fill="#CDEAF7"/><rect x="296" y="108" width="22" height="22" fill="#8FCDEB"/><rect x="318" y="108" width="22" height="22" fill="#CDEAF7"/><rect x="340" y="108" width="22" height="22" fill="#CDEAF7"/><rect x="362" y="108" width="22" height="22" fill="#CDEAF7"/><rect x="384" y="108" width="22" height="22" fill="#CDEAF7"/><rect x="406" y="108" width="22" height="22" fill="#CDEAF7"/><rect x="428" y="108" width="22" height="22" fill="#CDEAF7"/>
<rect x="230" y="130" width="22" height="22" fill="#CDEAF7"/><rect x="252" y="130" width="22" height="22" fill="#CDEAF7"/><rect x="274" y="130" width="22" height="22" fill="#CDEAF7"/><rect x="296" y="130" width="22" height="22" fill="#CDEAF7"/><rect x="318" y="130" width="22" height="22" fill="#CDEAF7"/><rect x="340" y="130" width="22" height="22" fill="#CDEAF7"/><rect x="362" y="130" width="22" height="22" fill="#8FCDEB"/><rect x="384" y="130" width="22" height="22" fill="#CDEAF7"/><rect x="406" y="130" width="22" height="22" fill="#CDEAF7"/><rect x="428" y="130" width="22" height="22" fill="#CDEAF7"/>
<rect x="230" y="152" width="22" height="22" fill="#CDEAF7"/><rect x="252" y="152" width="22" height="22" fill="#CDEAF7"/><rect x="274" y="152" width="22" height="22" fill="#CDEAF7"/><rect x="296" y="152" width="22" height="22" fill="#CDEAF7"/><rect x="318" y="152" width="22" height="22" fill="#CDEAF7"/><rect x="340" y="152" width="22" height="22" fill="#CDEAF7"/><rect x="362" y="152" width="22" height="22" fill="#CDEAF7"/><rect x="384" y="152" width="22" height="22" fill="#CDEAF7"/><rect x="406" y="152" width="22" height="22" fill="#CDEAF7"/><rect x="428" y="152" width="22" height="22" fill="#8FCDEB"/>
<rect x="230" y="174" width="22" height="22" fill="#CDEAF7"/><rect x="252" y="174" width="22" height="22" fill="#CDEAF7"/><rect x="274" y="174" width="22" height="22" fill="#CDEAF7"/><rect x="296" y="174" width="22" height="22" fill="#CDEAF7"/><rect x="318" y="174" width="22" height="22" fill="#CDEAF7"/><rect x="340" y="174" width="22" height="22" fill="#CDEAF7"/><rect x="362" y="174" width="22" height="22" fill="#CDEAF7"/><rect x="384" y="174" width="22" height="22" fill="#CDEAF7"/><rect x="406" y="174" width="22" height="22" fill="#CDEAF7"/><rect x="428" y="174" width="22" height="22" fill="#8FCDEB"/>
<rect x="230" y="196" width="22" height="22" fill="#CDEAF7"/><rect x="252" y="196" width="22" height="22" fill="#CDEAF7"/><rect x="274" y="196" width="22" height="22" fill="#CDEAF7"/><rect x="296" y="196" width="22" height="22" fill="#CDEAF7"/><rect x="318" y="196" width="22" height="22" fill="#8FCDEB"/><rect x="340" y="196" width="22" height="22" fill="#CDEAF7"/><rect x="362" y="196" width="22" height="22" fill="#CDEAF7"/><rect x="384" y="196" width="22" height="22" fill="#CDEAF7"/><rect x="406" y="196" width="22" height="22" fill="#8FCDEB"/><rect x="428" y="196" width="22" height="22" fill="#8FCDEB"/>
<rect x="252" y="218" width="22" height="22" fill="#CDEAF7"/><rect x="274" y="218" width="22" height="22" fill="#CDEAF7"/><rect x="296" y="218" width="22" height="22" fill="#CDEAF7"/><rect x="318" y="218" width="22" height="22" fill="#CDEAF7"/><rect x="340" y="218" width="22" height="22" fill="#CDEAF7"/><rect x="362" y="218" width="22" height="22" fill="#CDEAF7"/><rect x="384" y="218" width="22" height="22" fill="#8FCDEB"/><rect x="406" y="218" width="22" height="22" fill="#8FCDEB"/>
<rect x="274" y="240" width="22" height="22" fill="#8FCDEB"/><rect x="296" y="240" width="22" height="22" fill="#8FCDEB"/><rect x="318" y="240" width="22" height="22" fill="#8FCDEB"/><rect x="340" y="240" width="22" height="22" fill="#8FCDEB"/><rect x="362" y="240" width="22" height="22" fill="#8FCDEB"/><rect x="384" y="240" width="22" height="22" fill="#8FCDEB"/>
<g clip-path="url(#ic)">
<rect x="150" y="306" width="380" height="22" fill="#6FB0E6"/>
<rect x="150" y="328" width="380" height="22" fill="#4F97D8"/>
<rect x="150" y="350" width="380" height="22" fill="#4F97D8"/>
<rect x="150" y="372" width="380" height="22" fill="#2C6BAA"/>
<rect x="252" y="350" width="22" height="22" fill="#2C6BAA"/><rect x="340" y="350" width="22" height="22" fill="#2C6BAA"/><rect x="428" y="350" width="22" height="22" fill="#2C6BAA"/>
<rect x="186" y="284" width="22" height="22" fill="#EAF7FF"/><rect x="208" y="284" width="22" height="22" fill="#EAF7FF"/><rect x="230" y="284" width="22" height="22" fill="#8FCDEB"/><rect x="296" y="284" width="22" height="22" fill="#EAF7FF"/><rect x="318" y="284" width="22" height="22" fill="#EAF7FF"/><rect x="340" y="284" width="22" height="22" fill="#8FCDEB"/><rect x="406" y="284" width="22" height="22" fill="#EAF7FF"/><rect x="428" y="284" width="22" height="22" fill="#EAF7FF"/><rect x="450" y="284" width="22" height="22" fill="#8FCDEB"/>
</g>
<rect x="184" y="404" width="312" height="76" rx="18" fill="url(#sky)"/>
<g fill="#CDEAF7">
<rect x="208" y="413" width="8" height="8"/><rect x="216" y="413" width="8" height="8"/><rect x="224" y="413" width="8" height="8"/><rect x="232" y="413" width="8" height="8"/><rect x="200" y="421" width="8" height="8"/><rect x="200" y="429" width="8" height="8"/><rect x="208" y="437" width="8" height="8"/><rect x="216" y="437" width="8" height="8"/><rect x="224" y="437" width="8" height="8"/><rect x="232" y="445" width="8" height="8"/><rect x="232" y="453" width="8" height="8"/><rect x="200" y="461" width="8" height="8"/><rect x="208" y="461" width="8" height="8"/><rect x="216" y="461" width="8" height="8"/><rect x="224" y="461" width="8" height="8"/>
<rect x="248" y="413" width="8" height="8"/><rect x="256" y="413" width="8" height="8"/><rect x="264" y="413" width="8" height="8"/><rect x="272" y="413" width="8" height="8"/><rect x="280" y="413" width="8" height="8"/><rect x="248" y="421" width="8" height="8"/><rect x="248" y="429" width="8" height="8"/><rect x="248" y="437" width="8" height="8"/><rect x="256" y="437" width="8" height="8"/><rect x="264" y="437" width="8" height="8"/><rect x="272" y="437" width="8" height="8"/><rect x="248" y="445" width="8" height="8"/><rect x="248" y="453" width="8" height="8"/><rect x="248" y="461" width="8" height="8"/><rect x="256" y="461" width="8" height="8"/><rect x="264" y="461" width="8" height="8"/><rect x="272" y="461" width="8" height="8"/><rect x="280" y="461" width="8" height="8"/>
<rect x="296" y="413" width="8" height="8"/><rect x="296" y="421" width="8" height="8"/><rect x="296" y="429" width="8" height="8"/><rect x="296" y="437" width="8" height="8"/><rect x="296" y="445" width="8" height="8"/><rect x="296" y="453" width="8" height="8"/><rect x="296" y="461" width="8" height="8"/><rect x="304" y="461" width="8" height="8"/><rect x="312" y="461" width="8" height="8"/><rect x="320" y="461" width="8" height="8"/><rect x="328" y="461" width="8" height="8"/>
<rect x="344" y="413" width="8" height="8"/><rect x="352" y="413" width="8" height="8"/><rect x="360" y="413" width="8" height="8"/><rect x="368" y="413" width="8" height="8"/><rect x="376" y="413" width="8" height="8"/><rect x="344" y="421" width="8" height="8"/><rect x="344" y="429" width="8" height="8"/><rect x="344" y="437" width="8" height="8"/><rect x="352" y="437" width="8" height="8"/><rect x="360" y="437" width="8" height="8"/><rect x="368" y="437" width="8" height="8"/><rect x="344" y="445" width="8" height="8"/><rect x="344" y="453" width="8" height="8"/><rect x="344" y="461" width="8" height="8"/><rect x="352" y="461" width="8" height="8"/><rect x="360" y="461" width="8" height="8"/><rect x="368" y="461" width="8" height="8"/><rect x="376" y="461" width="8" height="8"/>
<rect x="392" y="413" width="8" height="8"/><rect x="424" y="413" width="8" height="8"/><rect x="392" y="421" width="8" height="8"/><rect x="400" y="421" width="8" height="8"/><rect x="424" y="421" width="8" height="8"/><rect x="392" y="429" width="8" height="8"/><rect x="408" y="429" width="8" height="8"/><rect x="424" y="429" width="8" height="8"/><rect x="392" y="437" width="8" height="8"/><rect x="408" y="437" width="8" height="8"/><rect x="424" y="437" width="8" height="8"/><rect x="392" y="445" width="8" height="8"/><rect x="416" y="445" width="8" height="8"/><rect x="424" y="445" width="8" height="8"/><rect x="392" y="453" width="8" height="8"/><rect x="424" y="453" width="8" height="8"/><rect x="392" y="461" width="8" height="8"/><rect x="424" y="461" width="8" height="8"/>
<rect x="440" y="413" width="8" height="8"/><rect x="448" y="413" width="8" height="8"/><rect x="456" y="413" width="8" height="8"/><rect x="464" y="413" width="8" height="8"/><rect x="472" y="413" width="8" height="8"/><rect x="440" y="421" width="8" height="8"/><rect x="440" y="429" width="8" height="8"/><rect x="440" y="437" width="8" height="8"/><rect x="448" y="437" width="8" height="8"/><rect x="456" y="437" width="8" height="8"/><rect x="464" y="437" width="8" height="8"/><rect x="440" y="445" width="8" height="8"/><rect x="440" y="453" width="8" height="8"/><rect x="440" y="461" width="8" height="8"/><rect x="448" y="461" width="8" height="8"/><rect x="456" y="461" width="8" height="8"/><rect x="464" y="461" width="8" height="8"/><rect x="472" y="461" width="8" height="8"/>
</g>
</svg>
